<svg width="1436" height="762" viewBox="0 0 1436 762" fill="none" xmlns="http://www.w3.org/2000/svg">
<path d="M1114.95 1.91943C1110.45 2.2007 1109.16 10.2967 1107.42 13.9563C1102.44 24.4835 1094.65 34.8207 1092.29 46.2219C1089.78 58.3648 1084.85 67.992 1084.85 80.9952C1084.85 91.5707 1083.86 102.74 1085.69 113.177C1089.7 136.113 1109.6 154.322 1131 160.74C1157.65 168.737 1185.32 173.03 1211.91 181.303C1229 186.619 1247.75 192.252 1263.4 200.863C1273.27 206.291 1284.78 211.946 1290.23 222.429C1294.28 230.206 1298.7 237.844 1303.52 245.165C1309.76 254.63 1312.4 265.262 1317.57 275.257C1324.74 289.126 1331.7 302.906 1338.3 317.052C1348.56 339.053 1367.46 371.085 1393.63 376.234C1407.81 379.023 1419.09 384.091 1433.92 384.091" stroke="white" stroke-opacity="0.4" stroke-width="3" stroke-linecap="round"/>
<path d="M0 144C3.29559 143.268 37.8906 133.572 41.7948 133.312C50.2368 132.749 57.7539 128.798 66.7881 128.798C78.2525 128.798 92.6101 126.617 103.651 129.466C127.576 135.641 138.306 155.168 146.783 176.611C154.772 196.818 171.982 211.766 194.764 213.056C199.492 213.324 203.045 216.215 207.637 217.236C213.985 218.646 220.022 218.524 226.444 220.579C236.443 223.779 246.938 229.249 257.122 231.446C261.531 232.397 264.338 234.315 267.487 237.464C272.362 242.339 277.436 244.403 282.784 248.414C289.14 253.182 295.76 263.134 300.087 269.563C307.153 280.062 312.481 290.517 316.637 302.497C322.843 320.384 325.78 338.947 332.018 356.663C336.54 369.505 335.529 382.115 335.529 395.783C335.529 409.158 328.283 420.181 328.006 433.231C327.779 443.862 323.552 456.435 328.173 466.667C333.39 478.22 342.882 486.112 350.24 495.923C359.087 507.719 355.089 527.135 355.089 541.062C355.089 549.712 349.972 557.958 343.052 563.297C334.948 569.548 327.234 576.591 316.888 578.593C305.603 580.778 292.648 583.826 282.533 589.544C273.185 594.827 262.994 599.337 255.784 607.348C248.432 615.517 245.141 627.051 241.574 637.19C233.54 660.024 246.162 686.228 233.549 707.572C218.613 732.849 183.757 752.643 154.139 753.212C142.28 753.44 128.23 755.751 116.775 758.478C107.461 760.696 96.2071 759.231 86.5988 759.231C76.2673 759.231 66.5092 756.221 56.5066 756.221C49.9672 756.221 42.9802 754.499 37.281 751.039C25.7596 744.044 11.3722 742.738 0 735.157" stroke="white" stroke-opacity="0.4" stroke-width="3" stroke-linecap="round"/>
</svg>
