<svg width="1319" height="2643" viewBox="0 0 1319 2643" fill="none" xmlns="http://www.w3.org/2000/svg">
<path d="M582 1.5C519.555 10.2104 459.99 26.5086 400.242 46.5414C367.916 57.3802 334.71 67.3555 303.074 80.1036C279.685 89.5285 259.237 102.377 235.039 110.954C220.872 115.975 210.41 122.678 199.575 130.355C176.768 146.512 156.735 167.234 140.441 189.943V189.943C111.896 229.728 90.9718 273.564 75.834 319.785C63.7524 356.674 57.5473 419.757 82.1748 453.356C102.415 480.969 139.285 481.495 170.26 486.579C240.53 498.111 307.608 505.027 378.992 505.225C506.106 505.577 634.227 500.374 761.153 508.276C814.328 511.586 869.284 512.978 922.072 519.633C971.005 525.801 1018.62 544.359 1064.31 561.84C1109.78 579.237 1155.13 598.476 1197.47 622.523C1218.83 634.654 1240.91 645.718 1258.65 662.865C1292.39 695.482 1307.5 751.053 1311.6 796.097C1314.16 824.161 1317.59 851.565 1316.91 879.833C1316.42 900.737 1317.42 929.462 1303.72 947.296C1246.29 1022.03 1141.25 1034.83 1052.83 1035.95C956.717 1037.17 860.531 1036.12 764.409 1036.12C670.678 1036.12 575.733 1032.01 482.158 1037.47C402.078 1042.15 324.234 1062.91 254.576 1102.9C216.344 1124.85 177.96 1145.76 139.413 1167.15C114.763 1180.82 83.337 1191.59 63.1524 1211.56C51.8075 1222.78 46.7771 1237.63 37.9606 1250.71C21.399 1275.28 11.8345 1297.69 6.25672 1326.65C0.179484 1358.21 -3.28238 1395.33 23.9081 1417.84C102.057 1482.56 218.979 1475.6 313.014 1502.43C343.507 1511.13 374.35 1520.11 405.041 1528.02C448.412 1539.2 494.994 1537.27 539.397 1542.6C594.306 1549.19 649.006 1555.31 703.572 1564.47C738.404 1570.31 774.211 1576.72 807.081 1590.06C865.705 1613.86 911.432 1657.46 951.719 1704.65C989.638 1749.06 1041.73 1809.41 1002.62 1869.58C962.715 1930.97 880.132 1965.29 816.335 1994.17C746.996 2025.54 674.75 2054.74 599.891 2070.1C564.23 2077.42 529.923 2081.95 493.469 2082.65C435.487 2083.76 377.315 2095.42 319.697 2101.63C263.391 2107.7 196.902 2111.44 143.869 2133.84C120.334 2143.78 95.5865 2173.05 95.5865 2199.77C95.5865 2261.65 147.675 2296.73 183.97 2344.03C212.705 2381.47 239.286 2404.78 283.366 2423.35C311.298 2435.12 335.622 2445.18 365.282 2452.34C426.066 2467 486.627 2482.95 547.109 2498.78C576.645 2506.52 603.293 2518.8 630.224 2532.86C642.675 2539.35 656.17 2541.15 667.755 2549.64C690.811 2566.53 703.229 2613.97 703.229 2641" stroke="white" stroke-opacity="0.4" stroke-width="3" stroke-linecap="round"/>
</svg>
