<svg width="1229" height="607" viewBox="0 0 1229 607" fill="none" xmlns="http://www.w3.org/2000/svg">
<path d="M34.503 3.15857C56.9666 3.15857 81.2385 -0.618808 102.325 8.48663C121.671 16.8407 118.42 48.3187 118.42 65.9853C118.42 86.2778 102.476 106.368 86.2296 118.045C63.2732 134.545 39.5244 156.405 21.6268 178.208C8.00969 194.796 2.53462 209.86 2.53462 230.933C2.53462 240.899 0.38738 252.591 6.97468 260.904C14.5341 270.443 24.5223 275.338 35.169 280.662C65.9882 296.071 95.7158 304.198 130.408 304.749C161.841 305.248 191.386 302.767 222.206 297.09C240.895 293.647 260.828 291.291 279.816 290.874C289.347 290.664 298.731 289.494 308.232 288.876C327.328 287.633 335.364 293.824 346.861 308.634C360.159 325.764 371.841 344.815 375.277 366.577C379.668 394.384 374.86 421.264 356.962 443.501C347.111 455.74 318.279 471.286 316.224 488.234C315.271 496.098 312.667 518.241 318.555 524.865C333.524 541.705 358.12 537.296 378.607 538.629C390.098 539.376 401.505 540.627 413.017 540.627C435.971 540.627 451.864 527.63 462.08 555.723C467.872 571.652 470.5 563.785 470.5 582" stroke="white" stroke-opacity="0.4" stroke-width="3" stroke-linecap="round"/>
<path d="M1100.5 4C1092.24 7.17689 1075.9 35.7718 1071.59 42.5639C1058.6 63.0012 1040.45 82.9189 1031.85 105.724C1028.45 114.738 1027.05 124.096 1025.08 133.474C1022.13 147.471 1016.1 161.496 1015.53 175.876C1015.03 188.594 1015.53 201.445 1015.53 214.172C1015.53 231.451 1024.6 240.219 1037.51 250.913C1052.26 263.132 1059.46 282.434 1073.36 295.758C1081.2 303.266 1094.27 317.731 1097.45 328.17C1101.02 339.858 1099.45 353.078 1099.45 365.134C1099.45 381.909 1100.58 397.584 1095.67 413.53C1093.54 420.48 1095.45 430.517 1095.45 437.617C1095.45 449.755 1091.91 468.768 1098.67 479.687C1110.16 498.247 1124.26 530.795 1147.62 537.741C1158.99 541.121 1169.56 544.139 1180.48 548.841C1185.63 551.059 1191.08 550.206 1196.24 552.171C1199.98 553.596 1202.96 554.094 1205.45 557.832C1216.34 574.164 1227.32 583.259 1227.32 604.563" stroke="white" stroke-opacity="0.4" stroke-width="3" stroke-linecap="round"/>
</svg>
