<svg width="1440" height="309" viewBox="0 0 1440 309" fill="none" xmlns="http://www.w3.org/2000/svg">
<path d="M254.637 2C261.024 17.4234 270.937 38.2752 263.064 55.4379C252.457 78.5615 225.759 82.2756 203.976 84.8383C180.752 87.5705 146.371 100.519 137.993 124.39C133.59 136.934 136.319 149.097 137.323 161.643C138.842 180.634 140.212 204.777 130.906 221.785C110.514 259.053 74.2729 288.723 34.3733 302.325C19.774 307.302 15.4541 309.239 0.5 305.5" stroke="white" stroke-opacity="0.4" stroke-width="3" stroke-linecap="round"/>
<path d="M1186.34 2C1179.95 17.4234 1170.04 38.2752 1177.91 55.4379C1188.52 78.5615 1215.21 82.2756 1237 84.8383C1260.22 87.5705 1294.6 100.519 1302.98 124.39C1307.38 136.934 1304.65 149.097 1303.65 161.643C1302.13 180.634 1300.76 204.777 1310.07 221.785C1330.46 259.053 1366.7 288.723 1406.6 302.325C1421.2 307.302 1425.52 309.239 1440.47 305.5" stroke="white" stroke-opacity="0.4" stroke-width="3" stroke-linecap="round"/>
</svg>
