<svg width="1440" height="2637" viewBox="0 0 1440 2637" fill="none" xmlns="http://www.w3.org/2000/svg">
<path opacity="0.4" d="M-74.2211 2325.36C-42.1204 2315.09 -20.1411 2285.46 6.07849 2264.9C34.9927 2242.22 68.104 2226.56 98.4714 2206.12C111.722 2197.21 134.367 2184.8 142.975 2170.81C154.776 2151.63 156.519 2135.02 159.905 2113.01C168.808 2055.14 169.58 2000.58 169.58 1941.77C169.58 1845.15 166.591 1722.83 110.081 1639.19C52.0811 1553.35 -66.8066 1469.32 -170 1459" stroke="#F4F5FF" stroke-width="3" stroke-linecap="round"/>
<path opacity="0.4" d="M872.02 2C818.165 2 764.309 2 710.454 2C690.46 2 671.831 2.08281 652.406 7.32106C636.537 11.6002 607.684 9.52121 595.084 19.8981C576.643 35.0846 540.494 54.6606 528.57 75.5273C506.197 114.681 472.023 143.052 466.894 189.204C464.337 212.221 456.129 237.216 471.974 257.895C519.261 319.609 613.222 341.766 683.848 359.962C727.757 371.275 770.818 382.043 815.907 387.535C845.867 391.184 874.719 400.181 904.672 402.531C986.8 408.972 1074.74 397.448 1154.52 420.912C1235.75 444.802 1339.71 588.952 1251.99 659.876C1199.39 702.402 1121.84 720.951 1055.84 729.05C959.932 740.818 863.552 749.035 767.534 760.009C729.081 764.404 693.65 780.52 657.001 791.935C615.097 804.987 572.724 815.019 530.505 826.764C465.938 844.726 408.955 864.506 348.622 893.035C328.02 902.777 304.993 912.962 288.639 929.315C275.081 942.874 275.789 955.954 270.983 973.577C259.686 1015 262.064 1057.42 262.517 1100.07C263.219 1166.01 316.306 1197.4 377.646 1199C423.981 1200.2 467.136 1203.9 512.607 1213.75C528.192 1217.13 544.939 1221.01 560.98 1221.01C601.214 1221.01 646.223 1215.18 685.3 1224.88C744.984 1239.69 796.946 1264.96 853.88 1286.31C887.669 1298.98 915.816 1332.72 942.645 1355.97C975.033 1384.04 995.145 1429.48 1013.75 1467.23C1028.16 1496.45 1024.4 1526.79 1024.4 1558.65C1024.4 1592.71 1036.44 1651.06 1011.34 1678.13C978.901 1713.11 940.904 1742.49 896.207 1760.37C846.851 1780.11 791.785 1780.59 740.203 1789.39C724.103 1792.14 710.105 1801.43 694.007 1803.9C661.331 1808.93 631.797 1813.48 599.679 1823.25C572.504 1831.52 534.739 1849.21 524.7 1880.58C515.114 1910.53 523.733 1954.41 523.733 1986.27C523.733 2009.88 532.152 2021.68 545.501 2039.48" stroke="#F4F5FF" stroke-width="3" stroke-linecap="round"/>
<path opacity="0.5" d="M-9 367.702C43.3928 367.702 120.093 382.079 165.144 351.255C186.679 336.52 198.438 327.489 213.759 305.784C248.756 256.205 260.923 180.906 260.923 120.998C260.923 97.3336 266.006 67.5012 255.602 45.5359C247.712 28.8801 245.078 12.9728 230.448 2" stroke="#F4F5FF" stroke-width="3" stroke-linecap="round"/>
<path d="M1457.62 2134C1447.47 2134 1437.32 2134 1427.18 2134C1413.92 2134 1400.16 2145.25 1387.03 2148.17C1369.39 2152.09 1349.56 2184.58 1348.99 2201.96C1348.14 2227.9 1350.67 2252.83 1353.84 2278.18C1356.94 2302.93 1370.51 2344.72 1340.72 2358.47C1332.88 2362.09 1322.44 2371.31 1315.93 2377.23C1300.29 2391.45 1286.98 2405.75 1272.11 2421.05C1258.46 2435.1 1248 2455.82 1248 2476.5C1248 2495.08 1248.21 2505.47 1255.32 2522.07C1272.79 2562.83 1305.65 2591.7 1345.31 2611.54C1362 2619.88 1378.14 2621.37 1396.22 2623.35C1417.04 2625.63 1436.9 2632.04 1457.62 2634.63" stroke="#EAF1FB" stroke-opacity="0.4" stroke-width="3" stroke-linecap="round"/>
</svg>
