<svg width="1319" height="2672" viewBox="0 0 1319 2672" fill="none" xmlns="http://www.w3.org/2000/svg">
<path d="M613.564 5.9208C611.641 -1.77277 584.569 4.2219 579.812 4.8928C517.381 13.6971 459.818 27.8199 400.084 48.0685C367.765 59.0241 334.567 69.1068 302.939 81.9923C279.556 91.5188 259.112 104.506 234.92 113.175C220.82 118.227 210.39 124.965 199.609 132.681C176.711 149.068 156.641 170.053 140.344 193.016V193.016C111.806 233.229 90.8864 277.538 75.7522 324.256C63.6734 361.543 57.4698 425.305 82.0915 459.266C102.327 487.176 139.188 487.709 170.156 492.847C240.41 504.503 307.471 511.494 378.839 511.694C505.923 512.05 634.014 506.791 760.91 514.778C814.072 518.124 869.016 519.531 921.791 526.257C970.712 532.492 1018.32 551.25 1064 568.919C1109.46 586.503 1154.79 605.949 1197.12 630.256C1218.48 642.518 1240.55 653.701 1258.29 671.033C1292.02 704.001 1307.12 760.17 1311.23 805.7C1313.79 834.067 1317.21 861.765 1316.54 890.338C1316.04 911.467 1317.05 940.502 1303.35 958.528C1245.94 1034.07 1140.92 1047 1052.52 1048.14C956.428 1049.37 860.264 1048.31 764.165 1048.31C670.457 1048.31 575.534 1044.15 481.981 1049.68C401.919 1054.4 324.094 1075.39 254.452 1115.81C216.229 1138 177.854 1159.13 139.316 1180.75C114.672 1194.57 83.2534 1205.46 63.0736 1225.64C51.7313 1236.98 46.7021 1251.99 37.8877 1265.21C21.33 1290.05 11.7677 1312.69 6.19126 1341.97C0.115458 1373.87 -3.34559 1411.39 23.8385 1434.15C101.969 1499.56 218.863 1492.52 312.876 1519.64C343.362 1528.44 374.198 1537.52 404.881 1545.51C448.242 1556.81 494.814 1554.86 539.206 1560.25C594.102 1566.91 648.789 1573.09 703.342 1582.35C738.166 1588.26 773.965 1594.73 806.827 1608.22C865.437 1632.28 911.154 1676.35 951.431 1724.04C989.341 1768.93 1041.42 1829.93 1002.32 1890.75C962.424 1952.8 879.861 1987.49 816.079 2016.68C746.756 2048.39 674.527 2077.9 599.686 2093.43C564.033 2100.83 529.734 2105.41 493.289 2106.11C435.32 2107.23 377.162 2119.02 319.558 2125.3C263.266 2131.44 196.792 2135.21 143.771 2157.85C120.242 2167.9 95.5 2197.48 95.5 2224.5C95.5 2287.05 147.576 2322.5 183.863 2370.31C212.591 2408.15 239.166 2431.72 283.236 2450.49C311.161 2462.38 335.479 2472.55 365.132 2479.79C425.902 2494.61 486.448 2510.73 546.916 2526.73C576.445 2534.55 603.087 2546.96 630.012 2561.17C642.459 2567.74 655.951 2569.55 667.534 2578.13C690.584 2595.21 703 2643.16 703 2670.48" stroke="white" stroke-opacity="0.4" stroke-width="3" stroke-linecap="round"/>
</svg>
