<svg width="1440" height="936" viewBox="0 0 1440 936" fill="none" xmlns="http://www.w3.org/2000/svg">
<path d="M-47 360.939C-47 379.665 -39.7754 394.326 -38.0195 412.379C-38.0195 428.968 -20.1681 442.9 -5.59007 446.293C2.52212 448.18 8.45555 451.148 14.9902 456.125C20.6212 460.413 24.8312 466.357 30.8307 470.231C38.7877 475.369 46.3308 477.965 52.9077 485.478C74.619 510.282 75.0621 545.735 63.1355 577.244C53.22 603.439 35.4879 627.233 20.8524 650.057C5.90196 673.373 6.88281 697.904 6.88281 725.294C6.88281 749.013 15.7079 758.885 29.7082 775.878C43.1442 792.187 62.1908 822.533 82.7179 827.318C103.399 832.14 130.905 828.345 151.443 825.181C185.231 819.977 217.59 810.573 249.48 796.825C282.305 782.674 312.468 763.902 346.394 752.937C378 742.723 388.736 736.906 421.225 736.906C440.383 736.906 485.065 737.573 497.566 758.637C513.159 784.912 522.955 815.065 539.724 840.998C559.622 871.769 599.377 884.361 621.516 912.814C637.636 933.533 666.444 925.211 688.869 925.211C746.575 925.211 797.323 944.986 853.292 925.211C878.112 916.441 912.026 902.244 920.521 871.919C928.649 842.901 960.872 824.435 983.01 811.074C1015.36 791.548 1051.32 777.197 1088.03 774.596C1123.29 772.098 1153.6 773.946 1186.57 787.99C1209.11 797.592 1227.81 823.331 1247.43 839.003C1293.35 875.668 1342.53 904.834 1399.1 904.834C1443.03 904.834 1461.72 869.604 1461.72 821.761C1461.72 795.848 1456.81 774.682 1448.75 750.657C1442.16 731.051 1428.45 716.932 1428.04 695.085C1427.61 671.686 1430.29 648.605 1430.29 625.264C1430.29 607.055 1430.69 589.172 1440.76 573.824C1453.52 554.4 1477.35 547.572 1492.15 530.363C1518.89 499.269 1523.6 463.249 1521.59 421.214C1520.14 391.05 1522.81 331.086 1496.52 311.779C1479.43 299.233 1462.63 291.338 1442.26 289.266C1399.49 284.914 1356.19 286.701 1313.29 286.701C1286.64 286.701 1259.72 287.815 1233.09 286.416C1211.86 285.3 1191.38 280.559 1170.73 275.159C1159.78 272.295 1145.72 271.851 1135.68 265.612C1118.23 254.769 1093.17 234.547 1089.4 210.182C1087.24 196.18 1089.03 180.146 1089.03 166.009C1089.03 129.415 1093.61 82.0217 1066.45 54.5798C1050.66 38.6185 1043.02 32.7784 1020.93 32.7784C1002.15 32.7784 981.869 33.8032 963.303 37.3382C940.302 41.7177 917.38 45.6294 898.07 61.562C879.161 77.1631 863.038 97.0829 844.062 112.004C823.44 128.22 802.087 150.606 775.96 153.042C743.535 156.066 709.089 154.44 676.676 153.042C653.41 152.039 623.584 150.446 605.581 130.814C594.934 119.203 588.422 104.124 580.385 90.2031C563.878 61.6119 541.543 39.3152 520.266 15.3943C508.479 2.14207 501.065 2 485.093 2C428.511 2 378.287 5.34241 325.191 30.3561C289.133 47.3428 250.215 73.1125 228.65 111.434C216.064 133.802 203.339 154.138 188.862 175.129C177.331 191.849 160.601 213.981 141.715 219.159C126.129 223.432 106.553 220.014 90.4511 220.014H40.6843C10.0289 220.014 -22.0147 239.942 -35.7744 272.166C-43.2906 289.769 -47 301.719 -47 321.184V360.939Z" stroke="white" stroke-opacity="0.4" stroke-width="3" stroke-linecap="round"/>
</svg>
